BodoniModa-BlackItalic.ufo
<glyph name="B" format="2">
  <advance width="1479"/>
  <unicode hex="0042"/>
  <anchor x="506" y="0" name="bottom"/>
  <anchor x="804" y="1500" name="top"/>
  <outline>
    <contour>
      <point x="-100" y="0" type="line"/>
      <point x="641" y="0" type="line" smooth="yes"/>
      <point x="1002" y="0"/>
      <point x="1380" y="139"/>
      <point x="1380" y="439" type="curve" smooth="yes"/>
      <point x="1380" y="656"/>
      <point x="1181" y="748"/>
      <point x="951" y="772" type="curve"/>
      <point x="1225" y="810"/>
      <point x="1490" y="940"/>
      <point x="1490" y="1170" type="curve" smooth="yes"/>
      <point x="1490" y="1410"/>
      <point x="1291" y="1500"/>
      <point x="930" y="1500" type="curve" smooth="yes"/>
      <point x="250" y="1500" type="line"/>
      <point x="250" y="1427" type="line"/>
      <point x="413" y="1427" type="line"/>
      <point x="97" y="73" type="line"/>
      <point x="-100" y="73" type="line"/>
    </contour>
    <contour>
      <point x="527" y="73" type="line"/>
      <point x="842" y="1427" type="line"/>
      <point x="920" y="1427" type="line" smooth="yes"/>
      <point x="1012" y="1427"/>
      <point x="1050" y="1388"/>
      <point x="1050" y="1270" type="curve" smooth="yes"/>
      <point x="1050" y="1012"/>
      <point x="931" y="807"/>
      <point x="779" y="807" type="curve" smooth="yes"/>
      <point x="682" y="807" type="line"/>
      <point x="665" y="733" type="line"/>
      <point x="752" y="733" type="line" smooth="yes"/>
      <point x="863" y="733"/>
      <point x="920" y="698"/>
      <point x="920" y="520" type="curve" smooth="yes"/>
      <point x="920" y="222"/>
      <point x="784" y="73"/>
      <point x="641" y="73" type="curve" smooth="yes"/>
    </contour>
  </outline>
</glyph>
<glyph name="E" format="2">
  <advance width="1350"/>
  <unicode hex="0045"/>
  <anchor x="586" y="0" name="bottom"/>
  <anchor x="996" y="0" name="ogonek"/>
  <anchor x="904" y="1500" name="top"/>
  <outline>
    <contour>
      <point x="70" y="0" type="line"/>
      <point x="500" y="0" type="line"/>
      <point x="848" y="1500" type="line"/>
      <point x="418" y="1500" type="line"/>
    </contour>
    <contour>
      <point x="-100" y="0" type="line"/>
      <point x="1174" y="0" type="line"/>
      <point x="1277" y="450" type="line"/>
      <point x="1204" y="450" type="line"/>
      <point x="1086" y="196"/>
      <point x="903" y="73"/>
      <point x="630" y="73" type="curve" smooth="yes"/>
      <point x="-100" y="73" type="line"/>
    </contour>
    <contour>
      <point x="914" y="496" type="curve"/>
      <point x="987" y="496" type="line"/>
      <point x="1115" y="1046" type="line"/>
      <point x="1042" y="1046" type="line"/>
      <point x="952" y="912"/>
      <point x="829" y="812"/>
      <point x="716" y="812" type="curve" smooth="yes"/>
      <point x="594" y="812" type="line"/>
      <point x="594" y="739" type="line"/>
      <point x="716" y="739" type="line" smooth="yes"/>
      <point x="829" y="739"/>
      <point x="885" y="630"/>
    </contour>
    <contour>
      <point x="1332" y="1090" type="curve"/>
      <point x="1405" y="1090" type="line"/>
      <point x="1501" y="1500" type="line"/>
      <point x="238" y="1500" type="line"/>
      <point x="238" y="1427" type="line"/>
      <point x="979" y="1427" type="line" smooth="yes"/>
      <point x="1213" y="1427"/>
      <point x="1322" y="1304"/>
    </contour>
  </outline>
</glyph>
<glyph name="P" format="2">
  <advance width="1469"/>
  <unicode hex="0050"/>
  <anchor x="279" y="0" name="bottom"/>
  <anchor x="836" y="1500" name="top"/>
  <outline>
    <contour>
      <point x="540" y="627" type="line"/>
      <point x="850" y="627" type="line" smooth="yes"/>
      <point x="1252" y="627"/>
      <point x="1529" y="864"/>
      <point x="1529" y="1164" type="curve" smooth="yes"/>
      <point x="1529" y="1404"/>
      <point x="1312" y="1500"/>
      <point x="1050" y="1500" type="curve" smooth="yes"/>
      <point x="240" y="1500" type="line"/>
      <point x="240" y="1427" type="line"/>
      <point x="403" y="1427" type="line"/>
      <point x="87" y="73" type="line"/>
      <point x="-90" y="73" type="line"/>
      <point x="-90" y="0" type="line"/>
      <point x="700" y="0" type="line"/>
      <point x="700" y="73" type="line"/>
      <point x="517" y="73" type="line"/>
      <point x="833" y="1427" type="line"/>
      <point x="950" y="1427" type="line" smooth="yes"/>
      <point x="1042" y="1427"/>
      <point x="1074" y="1361"/>
      <point x="1074" y="1243" type="curve" smooth="yes"/>
      <point x="1074" y="1025"/>
      <point x="982" y="700"/>
      <point x="750" y="700" type="curve" smooth="yes"/>
      <point x="557" y="700" type="line"/>
    </contour>
  </outline>
</glyph>
<glyph name="a" format="2">
  <advance width="1227"/>
  <unicode hex="0061"/>
  <anchor x="316" y="0" name="bottom"/>
  <anchor x="886" y="0" name="ogonek"/>
  <anchor x="686" y="920" name="top"/>
  <outline>
    <contour>
      <point x="313" y="-20" type="curve" smooth="yes"/>
      <point x="635" y="-20"/>
      <point x="744" y="577"/>
      <point x="744" y="703" type="curve" smooth="yes"/>
      <point x="744" y="887"/>
      <point x="639" y="940"/>
      <point x="547" y="940" type="curve" smooth="yes"/>
      <point x="291" y="940"/>
      <point x="40" y="611"/>
      <point x="40" y="305" type="curve" smooth="yes"/>
      <point x="40" y="110"/>
      <point x="114" y="-20"/>
    </contour>
    <contour>
      <point x="458" y="117" type="curve" smooth="yes"/>
      <point x="428" y="117"/>
      <point x="413" y="152"/>
      <point x="413" y="197" type="curve" smooth="yes"/>
      <point x="413" y="407"/>
      <point x="563" y="807"/>
      <point x="643" y="807" type="curve" smooth="yes"/>
      <point x="673" y="807"/>
      <point x="688" y="772"/>
      <point x="688" y="727" type="curve" smooth="yes"/>
      <point x="688" y="517"/>
      <point x="538" y="117"/>
    </contour>
    <contour>
      <point x="838" y="-20" type="curve" smooth="yes"/>
      <point x="981" y="-20"/>
      <point x="1116" y="56"/>
      <point x="1227" y="306" type="curve"/>
      <point x="1156" y="330" type="line"/>
      <point x="1074" y="158"/>
      <point x="1002" y="96"/>
      <point x="951" y="96" type="curve" smooth="yes"/>
      <point x="933" y="96"/>
      <point x="926" y="108"/>
      <point x="926" y="121" type="curve" smooth="yes"/>
      <point x="926" y="130"/>
      <point x="927.071" y="138.981"/>
      <point x="930" y="150" type="curve" smooth="yes"/>
      <point x="1135" y="920" type="line"/>
      <point x="766" y="920" type="line"/>
      <point x="720" y="728" type="line"/>
      <point x="688" y="525" type="line"/>
      <point x="631" y="363" type="line"/>
      <point x="600" y="220" type="line" smooth="yes"/>
      <point x="597" y="206"/>
      <point x="596" y="188"/>
      <point x="596" y="166" type="curve" smooth="yes"/>
      <point x="596" y="36"/>
      <point x="671" y="-20"/>
    </contour>
  </outline>
</glyph>
<glyph name="r" format="2">
  <advance width="998"/>
  <unicode hex="0072"/>
  <anchor x="176" y="0" name="bottom"/>
  <anchor x="176" y="0" name="cedilla"/>
  <anchor x="643" y="920" name="top"/>
  <outline>
    <contour>
      <point x="0" y="0" type="line"/>
      <point x="358" y="0" type="line"/>
      <point x="588" y="920" type="line"/>
      <point x="70" y="920" type="line"/>
      <point x="70" y="847" type="line"/>
      <point x="220" y="847" type="line"/>
    </contour>
    <contour>
      <point x="383" y="266" type="curve"/>
      <point x="424" y="266" type="line"/>
      <point x="484" y="502"/>
      <point x="644" y="869"/>
      <point x="826" y="869" type="curve" smooth="yes"/>
      <point x="921" y="869"/>
      <point x="972" y="828"/>
      <point x="972" y="738" type="curve"/>
      <point x="1046" y="737" type="line"/>
      <point x="1046" y="847"/>
      <point x="965" y="905"/>
      <point x="848" y="905" type="curve" smooth="yes"/>
      <point x="731" y="905"/>
      <point x="649" y="830"/>
      <point x="649" y="717" type="curve" smooth="yes"/>
      <point x="649" y="607"/>
      <point x="735" y="530"/>
      <point x="845" y="530" type="curve" smooth="yes"/>
      <point x="961" y="530"/>
      <point x="1048" y="619"/>
      <point x="1048" y="737" type="curve" smooth="yes"/>
      <point x="1048" y="861"/>
      <point x="954" y="939"/>
      <point x="833" y="939" type="curve" smooth="yes"/>
      <point x="596" y="939"/>
      <point x="446" y="566"/>
    </contour>
  </outline>
</glyph>
<glyph name="t" format="2">
  <advance width="744"/>
  <unicode hex="0074"/>
  <anchor x="296" y="0" name="bottom"/>
  <anchor x="483" y="1120" name="top"/>
  <anchor x="737" y="1020" name="topright"/>
  <outline>
    <contour>
      <point x="304" y="-20" type="curve" smooth="yes"/>
      <point x="491" y="-20"/>
      <point x="584" y="86"/>
      <point x="690" y="326" type="curve"/>
      <point x="618" y="348" type="line"/>
      <point x="541" y="176"/>
      <point x="482" y="102"/>
      <point x="440" y="102" type="curve" smooth="yes"/>
      <point x="419" y="102"/>
      <point x="413" y="118"/>
      <point x="413" y="140" type="curve" smooth="yes"/>
      <point x="413" y="158"/>
      <point x="418.141" y="176.484"/>
      <point x="422" y="191" type="curve" smooth="yes"/>
      <point x="669" y="1120" type="line"/>
      <point x="309" y="1120" type="line"/>
      <point x="88" y="270" type="line" smooth="yes"/>
      <point x="77.557" y="229.835"/>
      <point x="60" y="178"/>
      <point x="60" y="137" type="curve" smooth="yes"/>
      <point x="60" y="58"/>
      <point x="120" y="-20"/>
    </contour>
    <contour>
      <point x="64" y="846" type="line"/>
      <point x="804" y="846" type="line"/>
      <point x="804" y="920" type="line"/>
      <point x="64" y="920" type="line"/>
    </contour>
  </outline>
</glyph>
<glyph name="u" format="2">
  <advance width="1243"/>
  <unicode hex="0075"/>
  <anchor x="456" y="0" name="bottom"/>
  <anchor x="899" y="0" name="ogonek"/>
  <anchor x="696" y="920" name="top"/>
  <outline>
    <contour>
      <point x="288.322" y="-20" type="curve" smooth="yes"/>
      <point x="545.322" y="-20"/>
      <point x="698.322" y="349"/>
      <point x="774.322" y="654" type="curve"/>
      <point x="719.322" y="654" type="line"/>
      <point x="643.322" y="347"/>
      <point x="491.322" y="113"/>
      <point x="425.322" y="113" type="curve" smooth="yes"/>
      <point x="403.322" y="113"/>
      <point x="399.157" y="148.843"/>
      <point x="442.322" y="305" type="curve" smooth="yes"/>
      <point x="612.322" y="920" type="line"/>
      <point x="101.322" y="920" type="line"/>
      <point x="101.322" y="847" type="line"/>
      <point x="225.322" y="847" type="line"/>
      <point x="73.322" y="282" type="line" smooth="yes"/>
      <point x="23.964" y="98.529"/>
      <point x="115.322" y="-20"/>
    </contour>
    <contour>
      <point x="825.322" y="-20" type="curve" smooth="yes"/>
      <point x="996.322" y="-20"/>
      <point x="1134.32" y="56"/>
      <point x="1243.32" y="306" type="curve"/>
      <point x="1172.32" y="330" type="line"/>
      <point x="1091.32" y="158"/>
      <point x="1019.32" y="96"/>
      <point x="968.322" y="96" type="curve" smooth="yes"/>
      <point x="951.322" y="96"/>
      <point x="943.322" y="105"/>
      <point x="943.322" y="126" type="curve" smooth="yes"/>
      <point x="943.322" y="136"/>
      <point x="948.113" y="153.058"/>
      <point x="951.322" y="165" type="curve" smooth="yes"/>
      <point x="1154.32" y="920" type="line"/>
      <point x="789.322" y="920" type="line"/>
      <point x="604.322" y="220" type="line" smooth="yes"/>
      <point x="598.734" y="198.836"/>
      <point x="595.322" y="171"/>
      <point x="595.322" y="145" type="curve" smooth="yes"/>
      <point x="595.322" y="35"/>
      <point x="671.322" y="-20"/>
    </contour>
  </outline>
</glyph>
<glyph name="cent" format="2">
  <advance width="1035"/>
  <unicode hex="00A2"/>
  <anchor x="401" y="0" name="bottom"/>
  <anchor x="701" y="920" name="top"/>
  <outline>
    <contour>
      <point x="397" y="-20" type="curve" smooth="yes"/>
      <point x="649" y="-20"/>
      <point x="800" y="128"/>
      <point x="909" y="259" type="curve"/>
      <point x="845" y="303" type="line"/>
      <point x="760" y="181"/>
      <point x="596" y="71"/>
      <point x="501" y="71" type="curve" smooth="yes"/>
      <point x="448" y="71"/>
      <point x="409" y="93"/>
      <point x="409" y="163" type="curve" smooth="yes"/>
      <point x="409" y="381"/>
      <point x="538" y="859"/>
      <point x="756" y="859" type="curve" smooth="yes"/>
      <point x="863" y="859"/>
      <point x="970" y="788"/>
      <point x="970" y="690" type="curve"/>
      <point x="1033" y="690" type="line"/>
      <point x="1033" y="780"/>
      <point x="904" y="826"/>
      <point x="827" y="826" type="curve" smooth="yes"/>
      <point x="736" y="826"/>
      <point x="653" y="765"/>
      <point x="653" y="660" type="curve" smooth="yes"/>
      <point x="653" y="550"/>
      <point x="742" y="496"/>
      <point x="842" y="496" type="curve" smooth="yes"/>
      <point x="950" y="496"/>
      <point x="1035" y="579"/>
      <point x="1035" y="690" type="curve" smooth="yes"/>
      <point x="1035" y="828"/>
      <point x="897" y="940"/>
      <point x="703" y="940" type="curve" smooth="yes"/>
      <point x="341" y="940"/>
      <point x="40" y="600"/>
      <point x="40" y="260" type="curve" smooth="yes"/>
      <point x="40" y="90"/>
      <point x="155" y="-20"/>
    </contour>
    <contour>
      <point x="361" y="-170" type="line"/>
      <point x="400" y="-170" type="line"/>
      <point x="740" y="1109" type="line"/>
      <point x="700" y="1109" type="line"/>
    </contour>
  </outline>
</glyph>
<glyph name="ordfeminine" format="2">
  <advance width="705"/>
  <unicode hex="00AA"/>
  <anchor x="641.6" y="964" name="bottom"/>
  <anchor x="983.6" y="964" name="ogonek"/>
  <anchor x="863.6" y="1516" name="top"/>
  <outline>
    <contour>
      <point x="639.8" y="952" type="curve" smooth="yes"/>
      <point x="833" y="952"/>
      <point x="898.4" y="1310.2"/>
      <point x="898.4" y="1385.8" type="curve" smooth="yes"/>
      <point x="898.4" y="1496.2"/>
      <point x="835.4" y="1528"/>
      <point x="780.2" y="1528" type="curve" smooth="yes"/>
      <point x="626.6" y="1528"/>
      <point x="476" y="1330.6"/>
      <point x="476" y="1147" type="curve" smooth="yes"/>
      <point x="476" y="1030"/>
      <point x="520.4" y="952"/>
    </contour>
    <contour>
      <point x="726.8" y="1034.2" type="curve" smooth="yes"/>
      <point x="708.8" y="1034.2"/>
      <point x="699.8" y="1055.2"/>
      <point x="699.8" y="1082.2" type="curve" smooth="yes"/>
      <point x="699.8" y="1208.2"/>
      <point x="789.8" y="1448.2"/>
      <point x="837.8" y="1448.2" type="curve" smooth="yes"/>
      <point x="855.8" y="1448.2"/>
      <point x="864.8" y="1427.2"/>
      <point x="864.8" y="1400.2" type="curve" smooth="yes"/>
      <point x="864.8" y="1274.2"/>
      <point x="774.8" y="1034.2"/>
    </contour>
    <contour>
      <point x="954.8" y="952" type="curve" smooth="yes"/>
      <point x="1040.6" y="952"/>
      <point x="1121.6" y="997.6"/>
      <point x="1188.2" y="1147.6" type="curve"/>
      <point x="1145.6" y="1162" type="line"/>
      <point x="1096.4" y="1058.8"/>
      <point x="1053.2" y="1021.6"/>
      <point x="1022.6" y="1021.6" type="curve" smooth="yes"/>
      <point x="1011.8" y="1021.6"/>
      <point x="1007.6" y="1028.8"/>
      <point x="1007.6" y="1036.6" type="curve" smooth="yes"/>
      <point x="1007.6" y="1042"/>
      <point x="1008.2" y="1047.4"/>
      <point x="1010" y="1054" type="curve" smooth="yes"/>
      <point x="1133" y="1516" type="line"/>
      <point x="911.6" y="1516" type="line"/>
      <point x="884" y="1400.8" type="line"/>
      <point x="864.8" y="1279" type="line"/>
      <point x="830.6" y="1181.8" type="line"/>
      <point x="812" y="1096" type="line" smooth="yes"/>
      <point x="810.2" y="1087.6"/>
      <point x="809.6" y="1076.8"/>
      <point x="809.6" y="1063.6" type="curve" smooth="yes"/>
      <point x="809.6" y="985.6"/>
      <point x="854.6" y="952"/>
    </contour>
  </outline>
</glyph>
<glyph name="threesuperior" format="2">
  <advance width="899"/>
  <unicode hex="00B3"/>
  <outline>
    <contour>
      <point x="595.2" y="902" type="curve" smooth="yes"/>
      <point x="794.4" y="902"/>
      <point x="1027.2" y="998"/>
      <point x="1027.2" y="1196" type="curve" smooth="yes"/>
      <point x="1027.2" y="1328.6"/>
      <point x="886.8" y="1406"/>
      <point x="627.6" y="1406" type="curve"/>
      <point x="627.6" y="1379" type="line"/>
      <point x="758.4" y="1379"/>
      <point x="774" y="1320.8"/>
      <point x="774" y="1232" type="curve" smooth="yes"/>
      <point x="774" y="1101.2"/>
      <point x="726" y="943.4"/>
      <point x="571.2" y="943.4" type="curve" smooth="yes"/>
      <point x="465.6" y="943.4"/>
      <point x="375" y="1032.8"/>
      <point x="375" y="1134.8" type="curve"/>
      <point x="331.2" y="1134.8" type="line"/>
      <point x="331.2" y="1074.8"/>
      <point x="393.6" y="1022"/>
      <point x="458.4" y="1022" type="curve" smooth="yes"/>
      <point x="523.8" y="1022"/>
      <point x="586.2" y="1076.6"/>
      <point x="586.2" y="1145" type="curve" smooth="yes"/>
      <point x="586.2" y="1218.2"/>
      <point x="528.6" y="1271.6"/>
      <point x="462" y="1271.6" type="curve" smooth="yes"/>
      <point x="390" y="1271.6"/>
      <point x="330" y="1214"/>
      <point x="330" y="1134.8" type="curve" smooth="yes"/>
      <point x="330" y="1029.8"/>
      <point x="424.8" y="902"/>
    </contour>
    <contour>
      <point x="627.6" y="1395.2" type="line"/>
      <point x="904.8" y="1395.2"/>
      <point x="1099.2" y="1521.2"/>
      <point x="1099.2" y="1641.2" type="curve" smooth="yes"/>
      <point x="1099.2" y="1773.8"/>
      <point x="915" y="1824.8"/>
      <point x="781.2" y="1824.8" type="curve" smooth="yes"/>
      <point x="658.8" y="1824.8"/>
      <point x="497.4" y="1757"/>
      <point x="497.4" y="1634" type="curve" smooth="yes"/>
      <point x="497.4" y="1554.8"/>
      <point x="560.4" y="1499.6"/>
      <point x="627" y="1499.6" type="curve" smooth="yes"/>
      <point x="687" y="1499.6"/>
      <point x="754.8" y="1548.2"/>
      <point x="754.8" y="1626.2" type="curve" smooth="yes"/>
      <point x="754.8" y="1698.2"/>
      <point x="692.4" y="1749.8"/>
      <point x="627" y="1749.8" type="curve" smooth="yes"/>
      <point x="566.4" y="1749.8"/>
      <point x="498.6" y="1700"/>
      <point x="498.6" y="1634" type="curve"/>
      <point x="542.4" y="1634" type="line"/>
      <point x="542.4" y="1736"/>
      <point x="665.4" y="1782.8"/>
      <point x="745.2" y="1782.8" type="curve" smooth="yes"/>
      <point x="828" y="1782.8"/>
      <point x="846" y="1748"/>
      <point x="846" y="1671.2" type="curve" smooth="yes"/>
      <point x="846" y="1594.4"/>
      <point x="800.4" y="1422.2"/>
      <point x="627.6" y="1422.2" type="curve"/>
    </contour>
  </outline>
</glyph>
<glyph name="paragraph" format="2">
  <advance width="1462"/>
  <unicode hex="00B6"/>
  <outline>
    <contour>
      <point x="505" y="-300" type="line"/>
      <point x="1096" y="-300" type="line"/>
      <point x="1096" y="-227" type="line"/>
      <point x="933" y="-227" type="line"/>
      <point x="1314" y="1427" type="line"/>
      <point x="1501" y="1427" type="line"/>
      <point x="1501" y="1500" type="line"/>
      <point x="981" y="1500" type="line" smooth="yes"/>
      <point x="530" y="1500"/>
      <point x="171" y="1229"/>
      <point x="171" y="799" type="curve" smooth="yes"/>
      <point x="171" y="479"/>
      <point x="460" y="379"/>
      <point x="701" y="379" type="curve" smooth="yes"/>
      <point x="842" y="379" type="line"/>
      <point x="702" y="-227" type="line"/>
      <point x="505" y="-227" type="line"/>
    </contour>
    <contour>
      <point x="775" y="-227" type="line"/>
      <point x="1156" y="1427" type="line"/>
      <point x="1241" y="1427" type="line"/>
      <point x="860" y="-227" type="line"/>
    </contour>
  </outline>
</glyph>
<glyph name="guillemetright" format="2">
  <advance width="1389"/>
  <unicode hex="00BB"/>
  <outline>
    <contour>
      <point x="660" y="290" type="line"/>
      <point x="1440" y="750" type="line"/>
      <point x="1440" y="800" type="line"/>
      <point x="880" y="1260" type="line"/>
      <point x="840" y="1220" type="line"/>
      <point x="988" y="775" type="line"/>
      <point x="620" y="329" type="line"/>
    </contour>
    <contour>
      <point x="100" y="290" type="line"/>
      <point x="880" y="750" type="line"/>
      <point x="880" y="800" type="line"/>
      <point x="320" y="1260" type="line"/>
      <point x="280" y="1220" type="line"/>
      <point x="428" y="775" type="line"/>
      <point x="61" y="329" type="line"/>
    </contour>
  </outline>
</glyph>
<glyph name="gravecomb" format="2">
  <unicode hex="0300"/>
  <anchor x="813" y="1500" name="_top"/>
  <outline>
    <contour>
      <point x="1023" y="1660" type="line"/>
      <point x="1055" y="1708" type="line"/>
      <point x="906" y="1956" type="line" smooth="yes"/>
      <point x="820" y="2099"/>
      <point x="654" y="2079"/>
      <point x="601" y="2001" type="curve" smooth="yes"/>
      <point x="535" y="1905"/>
      <point x="593" y="1752"/>
      <point x="751" y="1718" type="curve" smooth="yes"/>
    </contour>
  </outline>
</glyph>
<glyph name="tildecomb" format="2">
  <unicode hex="0303"/>
  <anchor x="714" y="1500" name="_top"/>
  <outline>
    <contour>
      <point x="943" y="1620" type="curve" smooth="yes"/>
      <point x="1101" y="1620"/>
      <point x="1151" y="1745"/>
      <point x="1191" y="1934" type="curve"/>
      <point x="1118" y="1934" type="line"/>
      <point x="1078" y="1870"/>
      <point x="1043" y="1855"/>
      <point x="997" y="1855" type="curve" smooth="yes"/>
      <point x="905" y="1855"/>
      <point x="845" y="2014"/>
      <point x="704" y="2014" type="curve" smooth="yes"/>
      <point x="546" y="2014"/>
      <point x="475" y="1870"/>
      <point x="435" y="1700" type="curve"/>
      <point x="508" y="1700" type="line"/>
      <point x="548" y="1764"/>
      <point x="583" y="1777"/>
      <point x="629" y="1777" type="curve" smooth="yes"/>
      <point x="734" y="1777"/>
      <point x="789" y="1620"/>
    </contour>
  </outline>
</glyph>
<glyph name="ogonekcomb" format="2">
  <unicode hex="0328"/>
  <anchor x="475" y="32" name="_ogonek"/>
  <outline>
    <contour>
      <point x="293" y="-441" type="curve" smooth="yes"/>
      <point x="495" y="-441"/>
      <point x="594" y="-313"/>
      <point x="623" y="-256" type="curve"/>
      <point x="563" y="-226" type="line"/>
      <point x="542" y="-268"/>
      <point x="495" y="-324"/>
      <point x="449" y="-324" type="curve" smooth="yes"/>
      <point x="420" y="-324"/>
      <point x="405" y="-296"/>
      <point x="405" y="-259" type="curve" smooth="yes"/>
      <point x="405" y="-145"/>
      <point x="481" y="-32"/>
      <point x="543" y="35" type="curve"/>
      <point x="530" y="71" type="line"/>
      <point x="293" y="-11"/>
      <point x="43" y="-131"/>
      <point x="43" y="-291" type="curve" smooth="yes"/>
      <point x="43" y="-391"/>
      <point x="150" y="-441"/>
    </contour>
  </outline>
</glyph>
<glyph name="quotedblright" format="2">
  <advance width="1335"/>
  <unicode hex="201D"/>
  <outline>
    <contour>
      <point x="848" y="1012" type="line"/>
      <point x="1158" y="1012"/>
      <point x="1506" y="1176"/>
      <point x="1506" y="1506" type="curve" smooth="yes"/>
      <point x="1506" y="1671"/>
      <point x="1385" y="1780"/>
      <point x="1247" y="1780" type="curve" smooth="yes"/>
      <point x="1111" y="1780"/>
      <point x="993" y="1662"/>
      <point x="993" y="1536" type="curve" smooth="yes"/>
      <point x="993" y="1405"/>
      <point x="1092" y="1304"/>
      <point x="1248" y="1304" type="curve" smooth="yes"/>
      <point x="1356" y="1304"/>
      <point x="1504" y="1366"/>
      <point x="1504" y="1506" type="curve"/>
      <point x="1431" y="1506" type="line"/>
      <point x="1431" y="1206"/>
      <point x="1090" y="1086"/>
      <point x="848" y="1086" type="curve"/>
    </contour>
    <contour>
      <point x="236" y="1012" type="line"/>
      <point x="546" y="1012"/>
      <point x="894" y="1176"/>
      <point x="894" y="1506" type="curve" smooth="yes"/>
      <point x="894" y="1671"/>
      <point x="773" y="1780"/>
      <point x="635" y="1780" type="curve" smooth="yes"/>
      <point x="499" y="1780"/>
      <point x="381" y="1662"/>
      <point x="381" y="1536" type="curve" smooth="yes"/>
      <point x="381" y="1405"/>
      <point x="480" y="1304"/>
      <point x="636" y="1304" type="curve" smooth="yes"/>
      <point x="744" y="1304"/>
      <point x="892" y="1366"/>
      <point x="892" y="1506" type="curve"/>
      <point x="819" y="1506" type="line"/>
      <point x="819" y="1206"/>
      <point x="478" y="1086"/>
      <point x="236" y="1086" type="curve"/>
    </contour>
  </outline>
</glyph>
<glyph name="foursuperior" format="2">
  <advance width="861"/>
  <unicode hex="2074"/>
  <outline>
    <contour>
      <point x="630.4" y="919" type="line"/>
      <point x="887.8" y="919" type="line"/>
      <point x="1129.6" y="1819" type="line"/>
      <point x="901.6" y="1819" type="line"/>
      <point x="303.4" y="1155.4" type="line"/>
      <point x="1080.4" y="1155.4" type="line"/>
      <point x="1080.4" y="1199.2" type="line"/>
      <point x="406.6" y="1199.2" type="line"/>
      <point x="814" y="1649.8" type="line"/>
    </contour>
    <contour>
      <point x="528.4" y="919" type="line"/>
      <point x="990.4" y="919" type="line"/>
      <point x="990.4" y="962.8" type="line"/>
      <point x="528.4" y="962.8" type="line"/>
    </contour>
  </outline>
</glyph>
<glyph name="summation" format="2">
  <advance width="1395"/>
  <unicode hex="2211"/>
  <outline>
    <contour>
      <point x="-64" y="0" type="line"/>
      <point x="1159" y="0" type="line"/>
      <point x="1263" y="450" type="line"/>
      <point x="1190" y="450" type="line"/>
      <point x="1081" y="196"/>
      <point x="876" y="73"/>
      <point x="603" y="73" type="curve" smooth="yes"/>
      <point x="129" y="73" type="line"/>
      <point x="1055" y="813" type="line"/>
      <point x="785" y="1427" type="line"/>
      <point x="946" y="1427" type="line" smooth="yes"/>
      <point x="1180" y="1427"/>
      <point x="1317" y="1304"/>
      <point x="1318" y="1090" type="curve"/>
      <point x="1392" y="1090" type="line"/>
      <point x="1486" y="1500" type="line"/>
      <point x="312" y="1500" type="line"/>
      <point x="295" y="1427" type="line"/>
      <point x="657" y="600" type="line"/>
    </contour>
  </outline>
</glyph>
<glyph name="uniF8E9" format="2">
  <advance width="1159"/>
  <unicode hex="F8E9"/>
  <anchor x="688.36" y="860" name="_top"/>
  <anchor x="688.36" y="860" name="ogonek"/>
  <anchor x="803.56" y="1400.36" name="top"/>
  <outline>
    <contour>
      <point x="682" y="668" type="curve" smooth="yes"/>
      <point x="961.6" y="668"/>
      <point x="1228" y="935"/>
      <point x="1228" y="1214.6" type="curve" smooth="yes"/>
      <point x="1228" y="1446.8"/>
      <point x="1058.2" y="1592"/>
      <point x="826" y="1592" type="curve" smooth="yes"/>
      <point x="546.4" y="1592"/>
      <point x="280" y="1325"/>
      <point x="280" y="1045.4" type="curve" smooth="yes"/>
      <point x="280" y="813.2"/>
      <point x="449.8" y="668"/>
    </contour>
    <contour>
      <point x="884.2" y="860" type="line"/>
      <point x="907" y="860" type="line"/>
      <point x="946.6" y="1029.8" type="line"/>
      <point x="920.2" y="1029.8" type="line"/>
      <point x="881.2" y="963.2" type="line"/>
      <point x="860.8" y="939.8"/>
      <point x="840.4" y="923.6"/>
      <point x="819.4" y="911" type="curve"/>
    </contour>
    <contour>
      <point x="697" y="852.8" type="curve" smooth="yes"/>
      <point x="800.2" y="852.8"/>
      <point x="877" y="941"/>
      <point x="934.6" y="1029.8" type="curve"/>
      <point x="920.2" y="1029.8" type="line"/>
      <point x="855.4" y="956"/>
      <point x="791.8" y="884.6"/>
      <point x="717.4" y="884.6" type="curve" smooth="yes"/>
      <point x="642.4" y="884.6"/>
      <point x="635.8" y="920"/>
      <point x="635.8" y="986" type="curve" smooth="yes"/>
      <point x="635.8" y="1116.8"/>
      <point x="701.2" y="1373.6"/>
      <point x="833.8" y="1373.6" type="curve" smooth="yes"/>
      <point x="880" y="1373.6"/>
      <point x="929.8" y="1340"/>
      <point x="959.2" y="1230.2" type="curve"/>
      <point x="974.2" y="1230.2" type="line"/>
      <point x="964.6" y="1333.4"/>
      <point x="904" y="1407.2"/>
      <point x="805" y="1407.2" type="curve" smooth="yes"/>
      <point x="622.6" y="1407.2"/>
      <point x="477.4" y="1240.4"/>
      <point x="477.4" y="1043.6" type="curve" smooth="yes"/>
      <point x="477.4" y="926"/>
      <point x="565" y="852.8"/>
    </contour>
    <contour>
      <point x="682" y="711.8" type="curve" smooth="yes"/>
      <point x="473.2" y="711.8"/>
      <point x="323.8" y="836.6"/>
      <point x="323.8" y="1045.4" type="curve" smooth="yes"/>
      <point x="323.8" y="1301"/>
      <point x="570.4" y="1548.2"/>
      <point x="826" y="1548.2" type="curve" smooth="yes"/>
      <point x="1033.6" y="1548.2"/>
      <point x="1184.2" y="1418.6"/>
      <point x="1184.2" y="1214.6" type="curve" smooth="yes"/>
      <point x="1184.2" y="959"/>
      <point x="937.6" y="711.8"/>
    </contour>
    <contour>
      <point x="959.2" y="1230.2" type="line"/>
      <point x="986.2" y="1230.2" type="line"/>
      <point x="1024" y="1400" type="line"/>
      <point x="1001.8" y="1400" type="line"/>
      <point x="913.6" y="1346" type="line"/>
      <point x="928" y="1332.2"/>
      <point x="941.2" y="1316.6"/>
      <point x="950.2" y="1296.8" type="curve"/>
    </contour>
  </outline>
</glyph>
<glyph name="J.alt" format="2">
  <advance width="1441"/>
  <outline>
    <contour>
      <point x="422" y="-20" type="curve" smooth="yes"/>
      <point x="744" y="-20"/>
      <point x="1180" y="256"/>
      <point x="1252" y="561" type="curve" smooth="yes"/>
      <point x="1473" y="1500" type="line"/>
      <point x="1032" y="1500" type="line"/>
      <point x="812" y="500" type="line" smooth="yes"/>
      <point x="753" y="232"/>
      <point x="664" y="53"/>
      <point x="422" y="53" type="curve" smooth="yes"/>
      <point x="246" y="53"/>
      <point x="152" y="157"/>
      <point x="113" y="240" type="curve"/>
      <point x="136" y="221"/>
      <point x="193" y="186"/>
      <point x="273" y="186" type="curve" smooth="yes"/>
      <point x="421" y="186"/>
      <point x="536" y="302"/>
      <point x="536" y="432" type="curve" smooth="yes"/>
      <point x="536" y="584"/>
      <point x="434" y="680"/>
      <point x="284" y="680" type="curve" smooth="yes"/>
      <point x="124" y="680"/>
      <point x="10" y="552"/>
      <point x="10" y="368" type="curve" smooth="yes"/>
      <point x="10" y="128"/>
      <point x="208" y="-20"/>
    </contour>
    <contour>
      <point x="792" y="1427" type="line"/>
      <point x="1672" y="1427" type="line"/>
      <point x="1672" y="1500" type="line"/>
      <point x="792" y="1500" type="line"/>
    </contour>
  </outline>
</glyph>
<glyph name="a.sc" format="2">
  <advance width="1312"/>
  <anchor x="408" y="0" name="bottom"/>
  <anchor x="868" y="0" name="ogonek"/>
  <anchor x="768" y="1012" name="top"/>
  <outline>
    <contour>
      <point x="214" y="270" type="line"/>
      <point x="822" y="270" type="line"/>
      <point x="839" y="342" type="line"/>
      <point x="231" y="342" type="line"/>
    </contour>
    <contour>
      <point x="902" y="1040" type="line"/>
      <point x="662" y="1040" type="line"/>
      <point x="18" y="72" type="line"/>
      <point x="-103" y="72" type="line"/>
      <point x="-120" y="0" type="line"/>
      <point x="224" y="0" type="line"/>
      <point x="241" y="72" type="line"/>
      <point x="102" y="72" type="line"/>
      <point x="472" y="628" type="line"/>
      <point x="587" y="72" type="line"/>
      <point x="445" y="72" type="line"/>
      <point x="428" y="0" type="line"/>
      <point x="1192" y="0" type="line"/>
      <point x="1209" y="72" type="line"/>
      <point x="1088" y="72" type="line"/>
    </contour>
  </outline>
</glyph>
<glyph name="lslash.sc" format="2">
  <advance width="1139"/>
  <outline>
    <contour>
      <point x="75" y="366" type="line"/>
      <point x="846" y="656" type="line"/>
      <point x="846" y="740" type="line"/>
      <point x="75" y="451" type="line"/>
    </contour>
    <component base="l.sc"/>
  </outline>
</glyph>
<glyph name="nine.tosf" format="2">
  <advance width="1400"/>
  <outline>
    <contour>
      <point x="69" y="-519.961" type="line"/>
      <point x="755" y="-519.961"/>
      <point x="1299" y="25.168"/>
      <point x="1299" y="504.881" type="curve" smooth="yes"/>
      <point x="1299" y="808.257"/>
      <point x="1093" y="940.036"/>
      <point x="831" y="940.036" type="curve" smooth="yes"/>
      <point x="489" y="940.036"/>
      <point x="120" y="712.504"/>
      <point x="120" y="352.245" type="curve" smooth="yes"/>
      <point x="120" y="87.739"/>
      <point x="347" y="-17.495"/>
      <point x="549" y="-17.495" type="curve" smooth="yes"/>
      <point x="871" y="-17.495"/>
      <point x="971" y="547.543"/>
      <point x="971" y="769.387" type="curve"/>
      <point x="893" y="769.387" type="line"/>
      <point x="893" y="559.868"/>
      <point x="766" y="78.259"/>
      <point x="620" y="78.259" type="curve" smooth="yes"/>
      <point x="572" y="78.259"/>
      <point x="559" y="112.388"/>
      <point x="559" y="213.83" type="curve" smooth="yes"/>
      <point x="559" y="411.024"/>
      <point x="676" y="870.828"/>
      <point x="817" y="870.828" type="curve" smooth="yes"/>
      <point x="869" y="870.828"/>
      <point x="893" y="852.815"/>
      <point x="893" y="769.387" type="curve"/>
      <point x="889" y="466.011" type="line"/>
      <point x="889" y="215.726"/>
      <point x="537" y="-456.442"/>
      <point x="69" y="-456.442" type="curve"/>
    </contour>
  </outline>
</glyph>
<glyph name="seven.osf" format="2">
  <advance width="1148"/>
  <outline>
    <contour>
      <point x="314" y="-519.947" type="curve" smooth="yes"/>
      <point x="462" y="-519.947"/>
      <point x="562" y="-423.316"/>
      <point x="562" y="-296.368" type="curve" smooth="yes"/>
      <point x="562" y="-171.315"/>
      <point x="443" y="-105"/>
      <point x="443" y="-23.526" type="curve" smooth="yes"/>
      <point x="443" y="61.738"/>
      <point x="509" y="106.264"/>
      <point x="661" y="261.633" type="curve" smooth="yes"/>
      <point x="890" y="496.581"/>
      <point x="1243" y="920.055"/>
      <point x="1243" y="920.055" type="curve"/>
      <point x="171" y="920.055" type="line"/>
      <point x="40" y="370.58" type="line"/>
      <point x="115" y="370.58" type="line"/>
      <point x="148" y="512.686" type="line"/>
      <point x="791" y="512.686" type="line"/>
      <point x="669" y="370.58"/>
      <point x="618" y="316.58"/>
      <point x="488" y="189.633" type="curve" smooth="yes"/>
      <point x="300" y="6.79"/>
      <point x="81" y="-112.578"/>
      <point x="81" y="-300.158" type="curve" smooth="yes"/>
      <point x="81" y="-449.842"/>
      <point x="186" y="-519.947"/>
    </contour>
  </outline>
</glyph>
<glyph name="tbar.sc" format="2">
  <advance width="1197"/>
  <outline>
    <contour>
      <point x="266" y="464" type="line"/>
      <point x="1048.002" y="464" type="line"/>
      <point x="1048.002" y="536" type="line"/>
      <point x="266" y="536" type="line"/>
    </contour>
    <component base="t.sc"/>
  </outline>
</glyph>
<glyph name="u.sc" format="2">
  <advance width="1258"/>
  <anchor x="588" y="0" name="bottom"/>
  <anchor x="588" y="0" name="cedilla"/>
  <anchor x="851" y="1020" name="top"/>
  <outline>
    <contour>
      <point x="546" y="-28" type="curve" smooth="yes"/>
      <point x="882" y="-28"/>
      <point x="990" y="130"/>
      <point x="1043" y="360" type="curve" smooth="yes"/>
      <point x="1195" y="1020" type="line"/>
      <point x="1119" y="1020" type="line"/>
      <point x="967" y="360" type="line" smooth="yes"/>
      <point x="920" y="156"/>
      <point x="837" y="72"/>
      <point x="699" y="72" type="curve" smooth="yes"/>
      <point x="541" y="72"/>
      <point x="542" y="216"/>
      <point x="580" y="380" type="curve" smooth="yes"/>
      <point x="727" y="1020" type="line"/>
      <point x="297" y="1020" type="line"/>
      <point x="145" y="360" type="line" smooth="yes"/>
      <point x="88" y="114"/>
      <point x="140" y="-28"/>
    </contour>
    <contour>
      <point x="149" y="948" type="line"/>
      <point x="861" y="948" type="line"/>
      <point x="877" y="1020" type="line"/>
      <point x="165" y="1020" type="line"/>
    </contour>
    <contour>
      <point x="985" y="948" type="line"/>
      <point x="1307" y="948" type="line"/>
      <point x="1323" y="1020" type="line"/>
      <point x="1001" y="1020" type="line"/>
    </contour>
  </outline>
</glyph>
